<svg width="90" height="90" viewBox="0 0 90 90" fill="none" xmlns="http://www.w3.org/2000/svg">
<circle cx="45" cy="45" r="44.5" fill="black" stroke="#DDAF2A"/>
<circle cx="45" cy="45" r="35" fill="#DDAF2A"/>
<g clip-path="url(#clip0_125_2)">
<path d="M63.3848 26.6153C58.4741 21.7045 51.9448 19 45 19C38.0552 19 31.5259 21.7045 26.6152 26.6153C21.7044 31.526 19 38.0552 19 45C19 51.9448 21.7044 58.4741 26.6152 63.3847C31.5259 68.2954 38.0552 71 45 71C51.9448 71 58.4741 68.2955 63.3848 63.3847C68.2956 58.474 71 51.9448 71 45C71 38.0552 68.2956 31.5259 63.3848 26.6153ZM45 65.8967C33.4774 65.8967 24.1033 56.5225 24.1033 45C24.1033 44.9811 24.1039 44.9624 24.104 44.9437C24.104 44.939 24.1033 44.9344 24.1033 44.9296C24.1033 44.9216 24.1043 44.9139 24.1045 44.906C24.1552 33.5215 33.3555 24.2593 44.716 24.107C44.7398 24.1059 44.7634 24.1034 44.7874 24.1034C44.8019 24.1034 44.8159 24.1051 44.8302 24.1055C44.8869 24.1051 44.9433 24.1034 45.0001 24.1034C56.5227 24.1034 65.8968 33.4776 65.8968 45.0001C65.8968 56.5226 56.5226 65.8967 45 65.8967Z" fill="black"/>
<path d="M60.8729 46.2553C60.0232 46.2553 59.3344 45.5665 59.3344 44.7168C59.3344 43.8672 60.0232 43.1784 60.8729 43.1784H62.7273C61.8563 34.6394 54.9312 27.8655 46.3258 27.2295V28.8438C46.3258 29.6935 45.637 30.3823 44.7873 30.3823C43.9377 30.3823 43.2489 29.6935 43.2489 28.8438V27.2663C34.7708 28.097 28.0176 34.8938 27.2536 43.3909H28.9143C29.764 43.3909 30.4528 44.0797 30.4528 44.9294C30.4528 45.7791 29.764 46.4679 28.9143 46.4679H27.241C27.9484 55.1018 34.837 62.0115 43.4615 62.7526V60.8023C43.4615 59.9526 44.1503 59.2638 45 59.2638C45.8497 59.2638 46.5385 59.9526 46.5385 60.8023V62.7526C55.2336 62.0054 62.1642 54.988 62.775 46.2553H60.8729ZM51.2278 40.9478L46.0879 46.0878C45.7994 46.3764 45.4082 46.5385 45.0001 46.5385C44.5921 46.5385 44.2007 46.3764 43.9123 46.0878L34.9653 37.1409C34.3645 36.5401 34.3645 35.566 34.9653 34.9652C35.5661 34.3644 36.5402 34.3644 37.141 34.9652L45.0002 42.8243L49.0524 38.7722C49.6531 38.1713 50.6272 38.1713 51.228 38.7722C51.8287 39.3729 51.8287 40.3471 51.2278 40.9478Z" fill="black"/>
</g>
<defs>
<clipPath id="clip0_125_2">
<rect width="52" height="52" fill="white" transform="translate(19 19)"/>
</clipPath>
</defs>
</svg>
