<svg width="90" height="90" viewBox="0 0 90 90" fill="none" xmlns="http://www.w3.org/2000/svg">
<circle cx="45" cy="45" r="44.5" fill="black" stroke="#DDAF2A"/>
<circle cx="45" cy="45" r="35" fill="#DDAF2A"/>
<path d="M37.43 44.7019C45.3506 44.7019 51.775 38.2775 51.775 30.3569C51.775 22.4363 45.3506 16 37.43 16C29.5094 16 23.085 22.4244 23.085 30.345C23.085 38.2656 29.5094 44.7019 37.43 44.7019ZM32.4188 36.0212C32.5494 35.5463 32.68 35.0831 32.8225 34.6081C32.9888 34.0619 33.1431 34.0025 33.6419 34.2638C34.4969 34.7031 35.3994 34.9525 36.3494 35.0713C36.955 35.1425 37.5606 35.0831 38.1188 34.8337C39.1756 34.3706 39.3419 33.1475 38.4513 32.4112C38.1425 32.1619 37.7981 31.9719 37.4419 31.8175C36.5156 31.4137 35.5538 31.105 34.675 30.5825C33.2619 29.7394 32.3594 28.5638 32.4663 26.8419C32.585 24.8944 33.6894 23.6712 35.4706 23.03C36.2069 22.7569 36.2069 22.7687 36.2188 21.9969C36.2188 21.7356 36.2188 21.4744 36.2188 21.2131C36.2306 20.6312 36.3375 20.5363 36.9075 20.5125C37.0856 20.5125 37.2638 20.5125 37.4419 20.5125C38.6769 20.5125 38.6769 20.5125 38.6769 21.7475C38.6769 22.6144 38.6769 22.6263 39.5438 22.7569C40.2088 22.8637 40.8381 23.0538 41.4556 23.3269C41.8 23.4812 41.9188 23.7188 41.8238 24.075C41.6694 24.6094 41.5269 25.1438 41.3488 25.6663C41.1825 26.165 41.0281 26.2362 40.5531 26.0106C39.5913 25.5475 38.5819 25.3456 37.5131 25.405C37.2281 25.4169 36.9669 25.4525 36.7056 25.5712C35.7913 25.975 35.6369 26.9844 36.4206 27.6138C36.8125 27.9344 37.2638 28.16 37.7388 28.35C38.5463 28.6825 39.3656 29.015 40.1494 29.4425C42.6075 30.8081 43.2725 33.8956 41.5388 35.9975C40.9094 36.7575 40.1019 37.2681 39.14 37.5294C38.7244 37.6481 38.5344 37.8619 38.5581 38.2894C38.5819 38.7169 38.5581 39.1325 38.5581 39.56C38.5581 39.94 38.3681 40.1419 37.9881 40.1537C37.5369 40.1656 37.0738 40.1656 36.6225 40.1537C36.2188 40.1419 36.0288 39.9163 36.0288 39.5244C36.0288 39.2156 36.0288 38.9069 36.0169 38.5981C36.005 37.9212 35.9931 37.8856 35.3281 37.7787C34.485 37.6481 33.6656 37.4581 32.8938 37.0781C32.3119 36.805 32.2525 36.6506 32.4188 36.0212Z" fill="black"/>
<path d="M69.6113 45.9012H67.9369C66.8325 42.5168 64.6713 39.5124 61.7856 37.1849C61.7856 37.0781 61.7619 36.9593 61.7381 36.8524C61.1325 34.7268 61.8806 32.7912 62.7475 31.4018C63.3531 30.4281 62.5694 29.1812 61.4294 29.3237C58.8763 29.6443 57.1188 30.5824 55.9075 31.6393C55.0763 32.3637 54.4825 33.3374 54.2213 34.4181C52.3925 41.9943 45.5644 47.6349 37.43 47.6349C33.4756 47.6349 29.8419 46.3049 26.9325 44.0724C25.9231 46.2574 25.3769 48.6443 25.3769 51.1499C25.3769 52.5037 25.5431 53.8218 25.8519 55.0924C25.8519 55.0924 25.8519 55.1162 25.8638 55.1518C26.1844 56.4699 26.6713 57.7406 27.2888 58.9399C28.1081 60.7093 29.2956 62.7756 30.9344 64.4499C33.2975 66.8843 33.7013 69.9006 33.7606 71.2068V71.7649C33.7606 71.7887 33.7606 71.8124 33.7606 71.8362C33.7606 71.8481 33.7606 71.8481 33.7606 71.8481C33.8081 72.4893 34.3425 72.9999 34.9956 72.9999H42.5006C43.1775 72.9999 43.7356 72.4537 43.7356 71.7649V69.9124C44.8281 70.0549 45.9444 70.1381 47.0725 70.1381C47.9631 70.1381 48.83 70.0906 49.6969 69.9956V71.7649C49.6969 72.4418 50.2431 72.9999 50.9319 72.9999H58.4606C59.1375 72.9999 59.6956 72.4537 59.6956 71.7649V69.9124C59.7075 69.2949 59.9213 66.8368 62.2488 64.7349C62.3319 64.6637 62.415 64.5924 62.4981 64.5212C62.5219 64.4974 62.5456 64.4856 62.5694 64.4618C65.1581 62.1581 67.07 59.2843 68.0556 56.0781H69.635C70.8938 56.0781 71.915 55.0568 71.915 53.7981V48.1812C71.8913 46.9224 70.87 45.9012 69.6113 45.9012ZM60.2181 46.3049C59.185 46.3049 58.3538 45.4737 58.3538 44.4406C58.3538 43.4074 59.185 42.5762 60.2181 42.5762C61.2513 42.5762 62.0825 43.4074 62.0825 44.4406C62.0825 45.4737 61.2513 46.3049 60.2181 46.3049Z" fill="black"/>
</svg>
